<?xml version="1.0" encoding="utf-8"?>
<!-- Generator: Adobe Illustrator 17.0.2, SVG Export Plug-In . SVG Version: 6.00 Build 0)  -->
<!DOCTYPE svg PUBLIC "-//W3C//DTD SVG 1.1//EN" "http://www.w3.org/Graphics/SVG/1.1/DTD/svg11.dtd">
<svg version="1.1" id="Layer_1" xmlns="http://www.w3.org/2000/svg" xmlns:xlink="http://www.w3.org/1999/xlink" x="0px" y="0px"
	 width="300px" height="300px" viewBox="0 0 300 300" enable-background="new 0 0 300 300" xml:space="preserve">
<path fill="#DBBA97" d="M255.147,22.642v238.199c0,11.406-9.194,20.648-20.537,20.648H205.4c-0.142,0.079-0.316,0.126-0.49,0.126
	H46.3c-0.695,0-1.264-0.711-1.264-1.58V3.574c0-0.869,0.569-1.58,1.264-1.58h188.31C245.953,1.994,255.147,11.236,255.147,22.642z"
	/>
<rect x="45.036" y="100.73" fill="#ED6E46" width="209.716" height="86.493"/>
<rect x="223.551" y="2.257" fill="#60432D" width="12.638" height="279.16"/>
<polygon fill="#60432D" points="88.217,296.36 79.397,294.78 71.366,296.36 71.366,281.615 88.217,281.615 "/>
<g>
	<path fill="#FFFFFF" d="M81.125,114.852c0-0.487,0.209-0.695,0.695-0.695h3.649c1.547,0,4.137,0.452,4.137,3.806
		c0,3.354-3.024,3.806-3.963,3.806h-1.842v4.032c0,0.365-0.313,0.556-1.043,0.556h-0.591c-0.73,0-1.043-0.191-1.043-0.556V114.852z
		 M85.349,119.475c0.66,0,1.512-0.261,1.512-1.512c0-1.251-0.852-1.529-1.512-1.529h-1.547v3.042H85.349z"/>
	<path fill="#FFFFFF" d="M94.784,117.094c2.764,0,4.206,1.651,4.206,4.675c0,3.024-1.442,4.693-4.206,4.693
		s-4.224-1.668-4.224-4.693C90.561,118.745,92.021,117.094,94.784,117.094z M96.383,121.769c0-1.738-0.486-2.642-1.599-2.642
		s-1.616,0.904-1.616,2.642c0,1.738,0.504,2.659,1.616,2.659S96.383,123.507,96.383,121.769z"/>
	<path fill="#FFFFFF" d="M104.915,117.094c1.234,0,2.886,0.399,2.886,1.199c0,0.33-0.626,1.338-0.922,1.338
		c-0.069,0-0.174-0.052-0.312-0.122c-0.312-0.156-0.782-0.382-1.512-0.382c-1.391,0-1.964,0.869-1.964,2.642
		c0,1.791,0.538,2.659,1.859,2.659c0.816,0,1.373-0.243,1.703-0.399c0.139-0.052,0.243-0.104,0.312-0.104
		c0.383,0,0.904,0.973,0.904,1.321c0,0.973-2.468,1.217-3.042,1.217c-2.972,0-4.38-1.512-4.38-4.623
		C100.448,118.745,101.805,117.094,104.915,117.094z"/>
	<path fill="#FFFFFF" d="M109.294,113.774c0-0.365,0.312-0.556,1.042-0.556h0.487c0.729,0,1.043,0.191,1.043,0.556v6.882
		l0.069,0.018l2.103-3.146c0.209-0.296,0.557-0.331,1.061-0.331h0.643c0.661,0,0.974,0.104,0.974,0.261
		c0,0.087-0.053,0.208-0.156,0.348l-2.416,3.441l2.833,4.484c0.087,0.156,0.139,0.261,0.139,0.365c0,0.157-0.312,0.261-0.99,0.261
		h-0.73c-0.504,0-0.886-0.069-1.043-0.33l-2.415-3.998l-0.069,0.018v3.754c0,0.365-0.313,0.556-1.043,0.556h-0.487
		c-0.729,0-1.042-0.191-1.042-0.556V113.774z"/>
	<path fill="#FFFFFF" d="M122.153,117.094c2.729,0,3.754,2.068,3.754,4.484c0,0.295-0.66,1.025-0.886,1.025h-4.433
		c0.122,1.39,0.869,1.825,1.999,1.825c1.095,0,1.859-0.539,2.103-0.539c0.383,0,0.904,0.973,0.904,1.321
		c0,0.869-2.155,1.251-3.129,1.251c-3.146,0-4.536-1.825-4.536-4.623C117.93,118.415,119.668,117.094,122.153,117.094z
		 M123.404,120.883c0-1.008-0.382-1.755-1.251-1.755c-0.729,0-1.355,0.417-1.564,1.755H123.404z"/>
	<path fill="#FFFFFF" d="M127.904,119.267h-0.277c-0.365,0-0.521-0.261-0.521-0.869v-0.295c0-0.608,0.156-0.869,0.521-0.869h0.277
		l0.227-1.651c0.052-0.365,0.364-0.556,0.938-0.556h0.538c0.608,0,0.869,0.191,0.869,0.556v1.651h0.852
		c0.365,0,0.521,0.261,0.521,0.869v0.295c0,0.608-0.156,0.869-0.521,0.869h-0.852v4.415c0,0.521,0.174,0.747,0.626,0.747
		c0.156,0,0.365-0.069,0.469-0.069c0.348,0,0.539,1.112,0.539,1.251c0,0.799-1.13,0.852-1.668,0.852
		c-1.634,0-2.538-0.887-2.538-2.815V119.267z"/>
	<path fill="#FFFFFF" d="M143.268,114.018c1.529,0,3.72,0.486,3.72,1.216c0,0.487-0.695,1.634-1.13,1.634
		c-0.209,0-0.991-0.556-2.642-0.556c-2.051,0-3.007,1.304-3.007,3.911s0.973,3.962,2.972,3.962c0.486,0,0.887-0.035,1.355-0.122
		v-2.208h-1.529c-0.365,0-0.521-0.26-0.521-0.869v-0.556c0-0.608,0.156-0.869,0.521-0.869h3.528c0.486,0,0.695,0.208,0.695,0.695
		v4.832c0,1.199-2.815,1.373-4.05,1.373c-3.893,0-5.718-1.964-5.718-6.257C137.463,116.069,139.409,114.018,143.268,114.018z"/>
	<path fill="#FFFFFF" d="M149.384,117.754c0-0.365,0.312-0.556,1.043-0.556h0.486c0.73,0,1.043,0.191,1.043,0.556v5.509
		c0,0.678,0.278,1.078,1.043,1.078c0.712,0,1.182-0.608,1.391-1.008v-5.579c0-0.365,0.312-0.556,1.042-0.556h0.487
		c0.729,0,1.042,0.191,1.042,0.556v5.509c0,1.791,0.209,2.155,0.209,2.521c0,0.417-1.512,0.556-1.946,0.556
		c-0.557,0-0.591-0.73-0.695-1.199c-0.504,0.66-1.46,1.321-2.59,1.321c-1.738,0-2.555-0.887-2.555-2.815V117.754z"/>
	<path fill="#FFFFFF" d="M159.062,115.182v-1.408c0-0.365,0.312-0.556,1.043-0.556h0.486c0.73,0,1.043,0.191,1.043,0.556v1.408
		c0,0.365-0.312,0.556-1.043,0.556h-0.486C159.375,115.738,159.062,115.547,159.062,115.182z M159.062,117.754
		c0-0.365,0.312-0.556,1.043-0.556h0.486c0.73,0,1.043,0.191,1.043,0.556v8.047c0,0.365-0.312,0.556-1.043,0.556h-0.486
		c-0.73,0-1.043-0.191-1.043-0.556V117.754z"/>
	<path fill="#FFFFFF" d="M163.372,121.769c0-2.833,1.321-4.675,3.668-4.675c0.816,0,1.407,0.278,1.772,0.539v-3.858
		c0-0.365,0.312-0.556,1.043-0.556h0.486c0.729,0,1.043,0.191,1.043,0.556v9.489c0,1.791,0.208,2.155,0.208,2.521
		c0,0.417-1.512,0.556-1.946,0.556c-0.556,0-0.591-0.73-0.695-1.182c-0.399,0.748-1.251,1.304-2.329,1.304
		C164.745,126.462,163.372,124.793,163.372,121.769z M168.812,123.333v-3.876c-0.278-0.156-0.678-0.33-1.217-0.33
		c-1.095,0-1.616,0.904-1.616,2.642c0,1.686,0.452,2.59,1.408,2.59C168.048,124.359,168.5,123.872,168.812,123.333z"/>
	<path fill="#FFFFFF" d="M177.414,117.094c2.729,0,3.754,2.068,3.754,4.484c0,0.295-0.66,1.025-0.886,1.025h-4.433
		c0.122,1.39,0.869,1.825,1.999,1.825c1.095,0,1.859-0.539,2.103-0.539c0.383,0,0.904,0.973,0.904,1.321
		c0,0.869-2.155,1.251-3.129,1.251c-3.146,0-4.536-1.825-4.536-4.623C173.19,118.415,174.929,117.094,177.414,117.094z
		 M178.665,120.883c0-1.008-0.382-1.755-1.251-1.755c-0.729,0-1.355,0.417-1.564,1.755H178.665z"/>
	<path fill="#FFFFFF" d="M187.336,119.267h-0.277c-0.365,0-0.521-0.261-0.521-0.869v-0.295c0-0.608,0.156-0.869,0.521-0.869h0.277
		l0.227-1.651c0.052-0.365,0.364-0.556,0.938-0.556h0.538c0.608,0,0.869,0.191,0.869,0.556v1.651h0.852
		c0.365,0,0.521,0.261,0.521,0.869v0.295c0,0.608-0.156,0.869-0.521,0.869h-0.852v4.415c0,0.521,0.174,0.747,0.626,0.747
		c0.156,0,0.365-0.069,0.469-0.069c0.348,0,0.539,1.112,0.539,1.251c0,0.799-1.13,0.852-1.668,0.852
		c-1.634,0-2.538-0.887-2.538-2.815V119.267z"/>
	<path fill="#FFFFFF" d="M196.895,117.094c2.764,0,4.206,1.651,4.206,4.675c0,3.024-1.442,4.693-4.206,4.693
		s-4.224-1.668-4.224-4.693C192.671,118.745,194.131,117.094,196.895,117.094z M198.493,121.769c0-1.738-0.486-2.642-1.599-2.642
		s-1.616,0.904-1.616,2.642c0,1.738,0.504,2.659,1.616,2.659S198.493,123.507,198.493,121.769z"/>
	<path fill="#FFFFFF" d="M95.208,135.688c-0.034-0.104-0.034-0.191-0.034-0.261c0-0.278,0.33-0.452,1.077-0.452h0.452
		c0.678,0,1.077,0.174,1.164,0.539l1.304,5.596c0.139,0.591,0.33,1.529,0.539,2.502c0.156-0.973,0.435-1.912,0.591-2.502l1.425-5.77
		c0.069-0.278,0.4-0.365,0.956-0.365h0.66c0.557,0,0.887,0.087,0.956,0.365l1.373,5.77c0.156,0.66,0.383,1.651,0.591,2.624
		c0.227-0.956,0.435-1.964,0.591-2.624l1.355-5.596c0.087-0.365,0.487-0.539,1.165-0.539h0.191c0.747,0,1.077,0.174,1.077,0.452
		c0,0.069-0.018,0.156-0.035,0.261l-2.832,11.158c-0.07,0.243-0.47,0.365-0.956,0.365h-1.269c-0.487,0-0.904-0.122-0.956-0.365
		l-1.703-7.195l-1.773,7.195c-0.069,0.243-0.469,0.365-0.955,0.365H98.91c-0.556,0-0.903-0.122-0.956-0.365L95.208,135.688z"/>
	<path fill="#FFFFFF" d="M111.647,141.145c0-1.738-0.208-2.103-0.208-2.451c0-0.417,1.512-0.556,1.946-0.556
		c0.557,0,0.591,0.695,0.695,1.13c0.365-0.661,0.887-1.321,1.895-1.321c0.852,0,0.99,0.591,0.99,0.938c0,0.33-0.191,1.46-0.538,1.46
		c-0.244,0-0.47-0.139-0.817-0.139c-0.713,0-1.182,0.521-1.391,0.869v5.579c0,0.365-0.312,0.556-1.042,0.556h-0.487
		c-0.729,0-1.043-0.191-1.043-0.556V141.145z"/>
	<path fill="#FFFFFF" d="M117.956,136.035v-1.408c0-0.365,0.312-0.556,1.043-0.556h0.486c0.73,0,1.043,0.191,1.043,0.556v1.408
		c0,0.365-0.312,0.556-1.043,0.556h-0.486C118.269,136.591,117.956,136.4,117.956,136.035z M117.956,138.607
		c0-0.365,0.312-0.556,1.043-0.556h0.486c0.73,0,1.043,0.191,1.043,0.556v8.047c0,0.365-0.312,0.556-1.043,0.556h-0.486
		c-0.73,0-1.043-0.191-1.043-0.556V138.607z"/>
	<path fill="#FFFFFF" d="M122.874,140.12h-0.277c-0.365,0-0.521-0.261-0.521-0.869v-0.295c0-0.608,0.156-0.869,0.521-0.869h0.277
		l0.227-1.651c0.052-0.365,0.364-0.556,0.938-0.556h0.538c0.608,0,0.869,0.191,0.869,0.556v1.651h0.852
		c0.365,0,0.521,0.261,0.521,0.869v0.295c0,0.608-0.156,0.869-0.521,0.869h-0.852v4.415c0,0.521,0.174,0.747,0.626,0.747
		c0.156,0,0.365-0.069,0.47-0.069c0.347,0,0.538,1.112,0.538,1.251c0,0.799-1.13,0.852-1.668,0.852
		c-1.634,0-2.538-0.887-2.538-2.815V140.12z"/>
	<path fill="#FFFFFF" d="M128.505,136.035v-1.408c0-0.365,0.312-0.556,1.043-0.556h0.486c0.73,0,1.043,0.191,1.043,0.556v1.408
		c0,0.365-0.312,0.556-1.043,0.556h-0.486C128.817,136.591,128.505,136.4,128.505,136.035z M128.505,138.607
		c0-0.365,0.312-0.556,1.043-0.556h0.486c0.73,0,1.043,0.191,1.043,0.556v8.047c0,0.365-0.312,0.556-1.043,0.556h-0.486
		c-0.73,0-1.043-0.191-1.043-0.556V138.607z"/>
	<path fill="#FFFFFF" d="M133.162,141.145c0-1.738-0.208-2.103-0.208-2.451c0-0.417,1.512-0.556,1.946-0.556
		c0.557,0,0.591,0.695,0.695,1.13c0.504-0.661,1.46-1.321,2.59-1.321c1.737,0,2.555,0.886,2.555,2.815v5.892
		c0,0.365-0.313,0.556-1.043,0.556h-0.486c-0.73,0-1.043-0.191-1.043-0.556v-5.509c0-0.678-0.278-1.078-1.043-1.078
		c-0.713,0-1.182,0.608-1.391,1.008v5.579c0,0.365-0.312,0.556-1.042,0.556h-0.487c-0.729,0-1.043-0.191-1.043-0.556V141.145z"/>
	<path fill="#FFFFFF" d="M143.763,146.446l0.017-0.069c-0.486-0.244-0.747-0.73-0.747-1.304c0-0.591,0.383-1.095,1.043-1.442
		c-0.852-0.469-1.408-1.304-1.408-2.59c0-2.242,1.669-3.093,3.737-3.093c0.469,0,0.921,0.052,1.338,0.139h2.798
		c0.365,0,0.521,0.261,0.521,0.869v0.295c0,0.574-0.139,0.817-0.417,0.817c-0.121,0-0.591-0.035-0.747-0.069l-0.035,0.069
		c0.157,0.208,0.278,0.643,0.278,0.973c0,2.173-1.564,3.077-3.545,3.077c-0.713,0-1.061,0.156-1.061,0.469
		c0,1.182,5.266-0.104,5.266,3.319c0,1.79-1.79,2.955-4.483,2.955c-2.799,0-4.137-0.817-4.137-2.398
		C142.181,147.558,142.737,146.846,143.763,146.446z M146.509,148.827c1.199,0,1.79-0.33,1.79-0.852c0-0.539-0.695-0.73-2.677-0.869
		c-0.608,0.208-0.938,0.591-0.938,0.938C144.684,148.514,145.223,148.827,146.509,148.827z M147.708,141.041
		c0-0.869-0.592-1.234-1.304-1.234c-0.713,0-1.304,0.365-1.304,1.234c0,0.869,0.591,1.217,1.304,1.217
		C147.116,142.257,147.708,141.91,147.708,141.041z"/>
	<path fill="#FFFFFF" d="M156.883,144.239c0.312,0,1.164,0.799,2.555,0.799c0.747,0,1.634-0.226,1.634-1.269
		c0-2.051-5.022-1.251-5.022-5.336c0-2.555,2.085-3.562,4.119-3.562c1.842,0,3.128,0.643,3.128,1.216
		c0,0.469-0.539,1.512-0.956,1.512c-0.226,0-0.765-0.435-1.929-0.435c-1.355,0-1.616,0.625-1.616,1.025
		c0,1.981,5.022,1.182,5.022,5.266c0,2.885-2.033,3.858-3.928,3.858c-2.642,0-4.084-0.938-4.084-1.53
		C155.806,145.247,156.518,144.239,156.883,144.239z"/>
	<path fill="#FFFFFF" d="M164.268,135.67c-0.034-0.122-0.069-0.226-0.069-0.313c0-0.243,0.33-0.382,1.061-0.382h0.573
		c0.504,0,0.903,0.122,1.025,0.504l2.537,8.134h0.069l2.607-8.134c0.122-0.365,0.521-0.504,1.025-0.504h0.539
		c0.729,0,1.043,0.139,1.043,0.382c0,0.087-0.018,0.191-0.053,0.313l-3.754,11.175c-0.087,0.278-0.47,0.365-0.974,0.365h-0.903
		c-0.504,0-0.887-0.087-0.974-0.365L164.268,135.67z"/>
	<path fill="#FFFFFF" d="M181.42,134.871c1.529,0,3.72,0.486,3.72,1.216c0,0.487-0.695,1.634-1.13,1.634
		c-0.209,0-0.991-0.556-2.642-0.556c-2.051,0-3.007,1.304-3.007,3.911s0.973,3.962,2.972,3.962c0.486,0,0.887-0.035,1.355-0.122
		v-2.208h-1.529c-0.365,0-0.521-0.261-0.521-0.869v-0.556c0-0.608,0.156-0.869,0.521-0.869h3.528c0.486,0,0.695,0.208,0.695,0.695
		v4.832c0,1.199-2.815,1.373-4.05,1.373c-3.893,0-5.718-1.964-5.718-6.257C175.615,136.922,177.562,134.871,181.42,134.871z"/>
</g>
<g>
	<path fill="#FFFFFF" d="M104.104,166.115c0-0.31,0.133-0.442,0.442-0.442h2.19c1.869,0,2.61,0.796,2.61,1.958
		c0,0.752-0.531,1.404-1.194,1.682l0.011,0.044c0.885,0.177,1.493,0.962,1.493,1.814c0,1.427-0.896,2.245-2.766,2.245h-2.345
		c-0.31,0-0.442-0.133-0.442-0.441V166.115z M106.57,168.76c0.664,0,1.028-0.365,1.028-0.83c0-0.543-0.332-0.818-1.007-0.818h-0.785
		v1.648H106.57z M106.891,171.967c0.642,0,1.019-0.32,1.019-0.896s-0.432-0.862-1.195-0.862h-0.907v1.758H106.891z"/>
	<path fill="#FFFFFF" d="M110.053,168.051c-0.022-0.077-0.045-0.144-0.045-0.199c0-0.154,0.211-0.243,0.675-0.243h0.354
		c0.32,0,0.564,0.056,0.619,0.232l0.653,2.047c0.077,0.255,0.21,0.862,0.31,1.339h0.044c0.1-0.477,0.232-1.096,0.31-1.339
		l0.653-2.047c0.055-0.177,0.298-0.232,0.619-0.232h0.266c0.465,0,0.664,0.089,0.664,0.243c0,0.056-0.012,0.122-0.033,0.199
		l-2.534,7.412c-0.066,0.178-0.298,0.232-0.619,0.232H111.8c-0.453,0-0.663-0.088-0.663-0.232c0-0.055,0.011-0.121,0.044-0.199
		l0.697-1.848L110.053,168.051z"/>
	<path fill="#FFFFFF" d="M118.324,171.967c0.111,0,0.266,0.089,0.62,0.089c0.664,0,0.929-0.343,0.929-1.15v-4.901
		c0-0.231,0.199-0.364,0.664-0.364h0.388c0.464,0,0.663,0.133,0.663,0.364v5.178c0,1.405-0.696,2.323-2.345,2.323
		c-0.266,0-1.372-0.033-1.372-0.509C117.871,172.797,117.981,172,118.324,171.967z"/>
	<path fill="#FFFFFF" d="M125.47,167.543c1.759,0,2.677,1.051,2.677,2.975c0,1.926-0.918,2.987-2.677,2.987
		c-1.76,0-2.688-1.062-2.688-2.987C122.781,168.594,123.71,167.543,125.47,167.543z M126.487,170.518
		c0-1.105-0.31-1.682-1.018-1.682s-1.029,0.576-1.029,1.682c0,1.107,0.321,1.693,1.029,1.693S126.487,171.625,126.487,170.518z"/>
	<path fill="#FFFFFF" d="M129.294,169.578c0-1.106-0.133-1.339-0.133-1.561c0-0.266,0.963-0.354,1.239-0.354
		c0.354,0,0.376,0.442,0.442,0.719c0.321-0.42,0.93-0.84,1.648-0.84c1.106,0,1.626,0.563,1.626,1.791v3.75
		c0,0.232-0.199,0.354-0.663,0.354h-0.31c-0.465,0-0.664-0.122-0.664-0.354v-3.506c0-0.432-0.177-0.686-0.664-0.686
		c-0.453,0-0.752,0.387-0.885,0.641v3.551c0,0.232-0.199,0.354-0.664,0.354h-0.31c-0.465,0-0.664-0.122-0.664-0.354V169.578z"/>
	<path fill="#FFFFFF" d="M135.42,166.325v-0.896c0-0.232,0.199-0.354,0.664-0.354h0.31c0.465,0,0.664,0.122,0.664,0.354v0.896
		c0,0.232-0.199,0.354-0.664,0.354h-0.31C135.619,166.68,135.42,166.558,135.42,166.325z M135.42,167.963
		c0-0.232,0.199-0.354,0.664-0.354h0.31c0.465,0,0.664,0.122,0.664,0.354v5.121c0,0.232-0.199,0.354-0.664,0.354h-0.31
		c-0.465,0-0.664-0.122-0.664-0.354V167.963z"/>
	<path fill="#FFFFFF" d="M142.532,167.122h-1.76c-0.231,0-0.331-0.166-0.331-0.554v-0.343c0-0.388,0.1-0.553,0.331-0.553h5.233
		c0.232,0,0.332,0.165,0.332,0.553v0.343c0,0.388-0.1,0.554-0.332,0.554h-1.76v5.962c0,0.232-0.198,0.354-0.663,0.354h-0.388
		c-0.464,0-0.663-0.122-0.663-0.354V167.122z"/>
	<path fill="#FFFFFF" d="M147.109,169.578c0-1.106-0.133-1.339-0.133-1.561c0-0.266,0.963-0.354,1.239-0.354
		c0.354,0,0.376,0.442,0.442,0.719c0.232-0.42,0.564-0.84,1.206-0.84c0.542,0,0.631,0.375,0.631,0.597
		c0,0.21-0.122,0.929-0.343,0.929c-0.155,0-0.299-0.088-0.521-0.088c-0.453,0-0.752,0.332-0.885,0.553v3.551
		c0,0.232-0.199,0.354-0.664,0.354h-0.31c-0.465,0-0.664-0.122-0.664-0.354V169.578z"/>
	<path fill="#FFFFFF" d="M150.626,168.051c-0.022-0.077-0.045-0.144-0.045-0.199c0-0.154,0.211-0.243,0.675-0.243h0.354
		c0.32,0,0.564,0.056,0.619,0.232l0.653,2.047c0.077,0.255,0.21,0.862,0.31,1.339h0.044c0.1-0.477,0.232-1.096,0.31-1.339
		l0.653-2.047c0.055-0.177,0.298-0.232,0.619-0.232h0.266c0.465,0,0.664,0.089,0.664,0.243c0,0.056-0.012,0.122-0.033,0.199
		l-2.534,7.412c-0.066,0.178-0.298,0.232-0.619,0.232h-0.188c-0.453,0-0.663-0.088-0.663-0.232c0-0.055,0.011-0.121,0.044-0.199
		l0.697-1.848L150.626,168.051z"/>
	<path fill="#FFFFFF" d="M156.642,168.926h-0.177c-0.232,0-0.332-0.166-0.332-0.554v-0.188c0-0.387,0.1-0.553,0.332-0.553h0.177
		l0.145-1.051c0.033-0.232,0.231-0.354,0.597-0.354h0.343c0.388,0,0.554,0.122,0.554,0.354v1.051h0.542
		c0.232,0,0.332,0.166,0.332,0.553v0.188c0,0.388-0.1,0.554-0.332,0.554h-0.542v2.809c0,0.332,0.11,0.477,0.398,0.477
		c0.1,0,0.232-0.045,0.299-0.045c0.221,0,0.343,0.709,0.343,0.797c0,0.509-0.72,0.542-1.062,0.542c-1.04,0-1.615-0.563-1.615-1.792
		V168.926z"/>
	<path fill="#FFFFFF" d="M160.303,165.43c0-0.232,0.199-0.354,0.663-0.354h0.311c0.464,0,0.663,0.122,0.663,0.354v2.865
		c0.343-0.41,0.896-0.752,1.56-0.752c1.106,0,1.671,0.563,1.671,1.791v3.75c0,0.232-0.199,0.354-0.664,0.354h-0.31
		c-0.465,0-0.664-0.122-0.664-0.354v-3.506c0-0.432-0.221-0.686-0.708-0.686c-0.453,0-0.752,0.387-0.885,0.641v3.551
		c0,0.232-0.199,0.354-0.663,0.354h-0.311c-0.464,0-0.663-0.122-0.663-0.354V165.43z"/>
	<path fill="#FFFFFF" d="M169.46,169.832v-0.365c0-0.42-0.255-0.631-0.863-0.631c-0.808,0-1.283,0.354-1.416,0.354
		c-0.232,0-0.575-0.652-0.575-0.885c0-0.376,0.886-0.763,2.113-0.763c1.748,0,2.379,0.773,2.379,1.847v2.08
		c0,1.14,0.132,1.372,0.132,1.604c0,0.265-0.962,0.354-1.238,0.354c-0.354,0-0.376-0.465-0.442-0.764
		c-0.078,0.145-0.608,0.841-1.627,0.841c-1.194,0-1.637-0.708-1.637-1.615S166.65,169.832,169.46,169.832z M168.464,172.211
		c0.421,0,0.819-0.299,0.996-0.697v-0.608c-1.051,0-1.549,0.288-1.549,0.819C167.911,172,168.1,172.211,168.464,172.211z"/>
	<path fill="#FFFFFF" d="M172.544,165.43c0-0.232,0.199-0.354,0.663-0.354h0.311c0.464,0,0.663,0.122,0.663,0.354v6.305
		c0,0.332,0.111,0.477,0.398,0.477c0.1,0,0.232-0.045,0.299-0.045c0.221,0,0.343,0.709,0.343,0.797c0,0.509-0.719,0.542-1.062,0.542
		c-1.04,0-1.615-0.563-1.615-1.792V165.43z"/>
	<path fill="#FFFFFF" d="M175.828,165.43c0-0.232,0.199-0.354,0.663-0.354h0.311c0.464,0,0.663,0.122,0.663,0.354v6.305
		c0,0.332,0.111,0.477,0.398,0.477c0.1,0,0.232-0.045,0.299-0.045c0.221,0,0.343,0.709,0.343,0.797c0,0.509-0.719,0.542-1.062,0.542
		c-1.04,0-1.615-0.563-1.615-1.792V165.43z"/>
</g>
<g>
	<g>
		
			<path fill="none" stroke="#7AA20D" stroke-width="1.3334" stroke-linecap="round" stroke-linejoin="round" stroke-miterlimit="10" d="
			M179.941,248.923c0,0,13.601-12.821,14.401-18.155c0.8-5.334,8.09,15.912,4.801,21.201"/>
		
			<path fill="#7AA20D" stroke="#7AA20D" stroke-width="0.6943" stroke-linecap="round" stroke-linejoin="round" stroke-miterlimit="10" d="
			M193.888,230.265c-0.234-1.061,0.071-2.255,1.005-3.434c1.951-2.46,4.115-3.06,7.118-3.114c0,0,3.859-0.069,4.661-3.495
			c-0.499,2.13-0.974,4.217-1.706,6.29c-1.189,3.368-3.908,8.468-8.311,6.636C195.123,232.509,194.155,231.474,193.888,230.265z"/>
	</g>
	<g>
		<path fill="#ED6E46" stroke="#ED6E46" stroke-width="2.1334" stroke-miterlimit="10" d="M199.138,252.986
			c0.306-0.021,0.63-0.085,0.986-0.2c1.485-0.483,3.697-1.219,4.917,0.55c2.631,3.812,1.006,9.75-3.208,11.608
			c-4.818,2.124-10.289-2.957-9.839-7.853c0.221-2.404,1.424-6.273,4.561-4.795C197.502,252.742,198.245,253.047,199.138,252.986z"
			/>
		<path fill="#ED6E46" stroke="#ED6E46" stroke-width="2.1334" stroke-miterlimit="10" d="M180.145,250.146
			c0.303,0.048,0.633,0.057,1.006,0.023c1.556-0.141,3.875-0.368,4.673,1.628c1.719,4.301-1.184,9.73-5.705,10.606
			c-5.169,1.001-9.375-5.167-7.85-9.841c0.749-2.295,2.781-5.8,5.511-3.663C178.604,249.545,179.26,250.007,180.145,250.146z"/>
	</g>
</g>
</svg>
