<?xml version="1.0" encoding="utf-8"?>
<!-- Generator: Adobe Illustrator 17.0.2, SVG Export Plug-In . SVG Version: 6.00 Build 0)  -->
<!DOCTYPE svg PUBLIC "-//W3C//DTD SVG 1.1//EN" "http://www.w3.org/Graphics/SVG/1.1/DTD/svg11.dtd">
<svg version="1.1" id="Layer_1" xmlns="http://www.w3.org/2000/svg" xmlns:xlink="http://www.w3.org/1999/xlink" x="0px" y="0px"
	 width="224px" height="40px" viewBox="0 0 224 40" enable-background="new 0 0 224 40" xml:space="preserve">
<path fill="#333333" d="M4.848,16.489h1.987c0.3,0.682,0.587,1.337,0.86,1.968c0.272,0.631,0.541,1.252,0.803,1.863
	s0.523,1.221,0.784,1.828c0.26,0.607,0.528,1.226,0.803,1.856h0.025c0.051-0.118,0.104-0.25,0.162-0.394
	c0.057-0.144,0.115-0.292,0.174-0.444s0.118-0.301,0.174-0.444c0.058-0.144,0.109-0.275,0.156-0.394
	c0.376-0.948,0.771-1.902,1.184-2.862c0.412-0.961,0.82-1.953,1.222-2.978h1.923v0.432c-0.165-0.004-0.307,0.018-0.425,0.066
	s-0.216,0.129-0.292,0.238c-0.076,0.11-0.13,0.257-0.162,0.438c-0.031,0.183-0.039,0.406-0.022,0.674l0.343,5.92
	c0.008,0.152,0.015,0.298,0.019,0.436s0.006,0.264,0.006,0.378l0.946-0.044v0.564h-2.914v-0.426c0.203-0.004,0.364-0.041,0.482-0.11
	c0.119-0.07,0.208-0.171,0.27-0.302c0.061-0.132,0.098-0.292,0.111-0.48s0.013-0.405,0-0.65l-0.336-5.547
	c-0.025,0.063-0.053,0.13-0.083,0.2c-0.03,0.069-0.059,0.143-0.089,0.219l-2.926,7.224H9.647c-0.284-0.635-0.569-1.27-0.857-1.904
	s-0.572-1.273-0.854-1.917c-0.282-0.644-0.559-1.292-0.832-1.945c-0.272-0.654-0.536-1.317-0.79-1.99l-0.013,0.572
	c-0.008,0.207-0.016,0.445-0.022,0.714c-0.006,0.27-0.015,0.557-0.025,0.861c-0.01,0.305-0.02,0.623-0.028,0.953
	S6.208,21.725,6.2,22.059c-0.008,0.335-0.017,0.664-0.025,0.988s-0.015,0.632-0.019,0.924c-0.004,0.195-0.008,0.388-0.013,0.579
	c-0.004,0.19-0.017,0.366-0.038,0.527l0.978-0.051v0.564H4.601v-0.426c0.203-0.004,0.362-0.039,0.476-0.104S5.279,24.909,5.34,24.8
	c0.062-0.107,0.101-0.232,0.118-0.374s0.03-0.294,0.038-0.454l0.286-6.957l-0.933,0.032V16.489z"/>
<path fill="#333333" d="M16.801,20.443c0-0.215,0.063-0.418,0.19-0.609c0.127-0.189,0.305-0.356,0.533-0.498s0.5-0.253,0.815-0.333
	c0.315-0.08,0.659-0.12,1.032-0.12c0.728,0,1.264,0.192,1.609,0.577c0.345,0.385,0.516,0.997,0.511,1.835l-0.013,2.92
	c0,0.135-0.003,0.271-0.009,0.409c-0.007,0.138-0.021,0.295-0.042,0.473l0.92-0.051v0.546h-1.86
	c-0.025-0.148-0.044-0.277-0.057-0.387c-0.013-0.11-0.023-0.227-0.032-0.35c-0.292,0.292-0.61,0.522-0.956,0.691
	C19.1,25.716,18.735,25.8,18.35,25.8c-0.326,0-0.61-0.039-0.854-0.117c-0.244-0.078-0.446-0.188-0.606-0.326
	c-0.161-0.141-0.281-0.304-0.362-0.492s-0.121-0.391-0.121-0.606c0-0.267,0.058-0.51,0.175-0.729
	c0.116-0.221,0.272-0.416,0.47-0.588c0.196-0.171,0.426-0.319,0.688-0.444s0.541-0.228,0.835-0.308
	c0.294-0.08,0.594-0.139,0.901-0.175c0.307-0.036,0.606-0.052,0.898-0.048v-0.812c0-0.224-0.013-0.441-0.038-0.653
	s-0.082-0.404-0.168-0.577c-0.086-0.174-0.222-0.312-0.406-0.413c-0.184-0.102-0.396-0.152-0.638-0.152
	c-0.14,0-0.273,0.012-0.4,0.035s-0.252,0.062-0.375,0.117s-0.234,0.127-0.333,0.216c-0.1,0.089-0.181,0.194-0.245,0.317
	c0.063,0.072,0.107,0.151,0.13,0.238c0.023,0.087,0.035,0.17,0.035,0.251c0,0.051-0.011,0.108-0.032,0.174s-0.054,0.127-0.099,0.185
	c-0.044,0.057-0.102,0.104-0.171,0.14c-0.07,0.036-0.164,0.054-0.283,0.054c-0.169,0-0.304-0.062-0.403-0.188
	C16.851,20.772,16.801,20.621,16.801,20.443z M20.368,22.412c-0.199,0.008-0.405,0.026-0.619,0.054
	c-0.213,0.027-0.423,0.069-0.628,0.127c-0.206,0.057-0.399,0.13-0.581,0.219s-0.341,0.194-0.476,0.317s-0.241,0.265-0.317,0.426
	c-0.076,0.16-0.11,0.342-0.102,0.545c0.004,0.161,0.035,0.302,0.092,0.423c0.057,0.12,0.131,0.22,0.222,0.298
	c0.091,0.078,0.196,0.138,0.314,0.178s0.246,0.061,0.381,0.061c0.173,0,0.336-0.017,0.489-0.051s0.297-0.084,0.435-0.149
	c0.137-0.065,0.271-0.145,0.399-0.237c0.129-0.094,0.259-0.201,0.391-0.324V22.412z"/>
<path fill="#333333" d="M29.185,24.214c0,0.135-0.003,0.271-0.01,0.409c-0.006,0.138-0.02,0.295-0.041,0.473l0.92-0.051v0.546h-1.86
	c-0.021-0.127-0.038-0.245-0.051-0.355s-0.023-0.218-0.032-0.324c-0.25,0.271-0.551,0.487-0.905,0.648
	c-0.353,0.16-0.748,0.24-1.184,0.24c-0.402,0-0.773-0.076-1.114-0.229c-0.34-0.152-0.637-0.37-0.889-0.653
	c-0.251-0.283-0.448-0.627-0.59-1.031c-0.142-0.404-0.213-0.858-0.213-1.362c0-0.528,0.083-1.017,0.251-1.463
	c0.167-0.446,0.398-0.831,0.695-1.155c0.296-0.323,0.648-0.575,1.057-0.755c0.408-0.18,0.854-0.27,1.336-0.27
	c0.144,0,0.288,0.01,0.432,0.031s0.282,0.049,0.416,0.082c0.133,0.034,0.257,0.072,0.371,0.115c0.114,0.042,0.214,0.086,0.298,0.133
	l0.006-1.777c0-0.136,0.001-0.267,0.003-0.394c0.002-0.127,0.014-0.277,0.035-0.45l-0.92,0.051v-0.547
	c0.284,0,0.519-0.009,0.705-0.028c0.186-0.019,0.338-0.045,0.457-0.079s0.21-0.071,0.276-0.111c0.065-0.04,0.124-0.083,0.174-0.13
	h0.375V24.214z M26.494,25.16c0.144,0,0.29-0.021,0.438-0.063s0.291-0.102,0.428-0.178c0.138-0.076,0.267-0.166,0.388-0.27
	c0.12-0.104,0.229-0.217,0.327-0.34c-0.004-0.105-0.006-0.218-0.006-0.337c0-0.118,0-0.245,0-0.381l0.006-3.744
	c-0.208-0.161-0.434-0.276-0.679-0.347c-0.246-0.069-0.497-0.104-0.755-0.104c-0.326,0-0.62,0.072-0.882,0.216
	s-0.485,0.348-0.67,0.612c-0.184,0.265-0.318,0.566-0.403,0.904c-0.084,0.339-0.127,0.765-0.127,1.276
	c0,0.352,0.047,0.708,0.143,1.069c0.095,0.362,0.224,0.665,0.387,0.908c0.163,0.243,0.362,0.434,0.597,0.571
	C25.919,25.091,26.189,25.16,26.494,25.16z"/>
<path fill="#333333" d="M36.91,21.757l-4.577,0.076c-0.004,0.5,0.034,0.954,0.114,1.361s0.208,0.755,0.381,1.043
	s0.397,0.511,0.669,0.668c0.273,0.156,0.6,0.234,0.981,0.234c0.203,0,0.411-0.027,0.622-0.083c0.211-0.055,0.416-0.13,0.613-0.227
	c0.196-0.096,0.377-0.21,0.542-0.345c0.165-0.134,0.303-0.277,0.413-0.431l0.317,0.261c-0.178,0.271-0.384,0.5-0.619,0.688
	c-0.234,0.188-0.478,0.342-0.729,0.46c-0.252,0.118-0.505,0.204-0.759,0.257S34.388,25.8,34.168,25.8
	c-0.449,0-0.866-0.08-1.254-0.24c-0.387-0.161-0.722-0.392-1.006-0.692s-0.507-0.662-0.67-1.085
	c-0.163-0.424-0.244-0.899-0.244-1.429c0-0.457,0.078-0.894,0.235-1.311s0.379-0.786,0.667-1.108
	c0.288-0.321,0.633-0.577,1.035-0.768s0.849-0.285,1.339-0.285c0.36,0,0.699,0.059,1.019,0.178c0.32,0.118,0.6,0.296,0.841,0.533
	c0.241,0.236,0.432,0.536,0.571,0.897C36.84,20.853,36.91,21.275,36.91,21.757z M34.282,19.396c-0.508,0-0.927,0.148-1.257,0.446
	c-0.33,0.297-0.548,0.779-0.654,1.445h3.313c0-0.228-0.025-0.454-0.076-0.68s-0.132-0.429-0.245-0.607
	c-0.112-0.18-0.257-0.325-0.435-0.437C34.752,19.452,34.536,19.396,34.282,19.396z"/>
<path fill="#333333" d="M40.992,19.091h2.755v0.387c-0.195,0.009-0.343,0.048-0.444,0.118c-0.102,0.069-0.168,0.166-0.2,0.288
	c-0.031,0.123-0.033,0.27-0.003,0.438s0.081,0.357,0.152,0.565l1.022,3.072c0.999-2.963,1.542-4.586,1.631-4.869h0.533l1.733,4.964
	c0.889-2.577,1.364-3.943,1.425-4.098c0.062-0.154,0.133-0.28,0.213-0.378l-0.756,0.045v-0.533h2.26v0.387
	c-0.225,0.014-0.408,0.046-0.551,0.099c-0.145,0.053-0.264,0.123-0.355,0.21c-0.094,0.087-0.172,0.19-0.232,0.311
	c-0.062,0.121-0.119,0.26-0.174,0.416l-1.874,5.116h-0.521l-1.701-4.919l-1.688,4.919h-0.495L42.02,20.64
	c-0.097-0.275-0.172-0.494-0.226-0.657c-0.053-0.163-0.09-0.295-0.111-0.396l-0.692,0.038V19.091z"/>
<path fill="#333333" d="M52.666,20.653c0-0.136,0.003-0.267,0.009-0.394c0.007-0.127,0.021-0.277,0.042-0.451l-0.921,0.051v-0.545
	c0.283,0,0.519-0.01,0.704-0.029c0.187-0.019,0.339-0.045,0.457-0.079c0.119-0.034,0.211-0.071,0.276-0.111s0.124-0.083,0.175-0.13
	h0.375v5.25c0,0.173-0.003,0.326-0.007,0.46c-0.004,0.133-0.019,0.273-0.044,0.422l0.818-0.038v0.533h-2.653v-0.387
	c0.199,0,0.351-0.04,0.454-0.118s0.179-0.187,0.225-0.327c0.047-0.139,0.073-0.307,0.08-0.501c0.006-0.194,0.01-0.408,0.01-0.642
	V20.653z M53.903,16.908c0,0.105-0.021,0.205-0.061,0.299c-0.04,0.093-0.092,0.174-0.155,0.244
	c-0.063,0.069-0.138,0.123-0.223,0.162c-0.084,0.037-0.173,0.057-0.266,0.057c-0.094,0-0.183-0.02-0.268-0.057
	c-0.084-0.039-0.159-0.093-0.225-0.162c-0.065-0.07-0.116-0.151-0.152-0.244c-0.036-0.094-0.055-0.193-0.055-0.299
	c0-0.11,0.02-0.213,0.058-0.308c0.038-0.096,0.09-0.179,0.155-0.251s0.141-0.128,0.226-0.168s0.176-0.061,0.272-0.061
	c0.098,0,0.188,0.021,0.271,0.061c0.082,0.04,0.155,0.096,0.219,0.168s0.113,0.155,0.149,0.251
	C53.886,16.695,53.903,16.798,53.903,16.908z"/>
<path fill="#333333" d="M55.199,19.091c0.229-0.004,0.436-0.066,0.621-0.188c0.187-0.12,0.351-0.271,0.492-0.45
	s0.262-0.376,0.359-0.587c0.097-0.212,0.173-0.411,0.229-0.598h0.443c0,0.348-0.001,0.671-0.003,0.972s-0.003,0.584-0.003,0.851
	h2.189v0.508l-2.189,0.025c-0.004,0.562-0.006,1.043-0.006,1.441c0,0.397-0.002,0.729-0.004,0.996s-0.003,0.478-0.003,0.632
	s-0.001,0.271-0.003,0.353c-0.002,0.08-0.004,0.132-0.004,0.155s0,0.037,0,0.041c0,0.296,0.017,0.558,0.048,0.784
	c0.032,0.227,0.086,0.417,0.162,0.571s0.177,0.271,0.302,0.349s0.282,0.117,0.473,0.117c0.225,0,0.446-0.067,0.666-0.203
	c0.221-0.135,0.415-0.327,0.584-0.577l0.35,0.286c-0.19,0.287-0.38,0.513-0.568,0.676s-0.367,0.285-0.536,0.368
	c-0.169,0.082-0.327,0.134-0.473,0.155c-0.146,0.021-0.274,0.031-0.384,0.031c-0.132,0-0.266-0.01-0.403-0.031
	s-0.273-0.062-0.406-0.124c-0.134-0.062-0.259-0.147-0.375-0.26s-0.219-0.257-0.308-0.435s-0.158-0.395-0.209-0.648
	s-0.074-0.554-0.07-0.9l0.025-3.758l-0.996,0.006V19.091z"/>
<path fill="#333333" d="M61.178,17.466c0-0.136,0.001-0.267,0.003-0.394s0.014-0.277,0.035-0.45l-0.921,0.051v-0.547
	c0.284,0,0.52-0.009,0.708-0.028c0.188-0.019,0.342-0.045,0.46-0.079c0.119-0.034,0.212-0.071,0.279-0.111
	c0.068-0.04,0.127-0.083,0.178-0.13h0.375v3.961c0.144-0.118,0.301-0.23,0.47-0.337c0.169-0.105,0.346-0.196,0.53-0.272
	c0.184-0.076,0.372-0.137,0.564-0.181c0.192-0.045,0.382-0.066,0.568-0.066c0.377,0,0.7,0.058,0.971,0.174
	c0.271,0.116,0.492,0.294,0.664,0.533c0.171,0.239,0.298,0.542,0.381,0.908c0.082,0.366,0.126,0.797,0.13,1.291l0.013,2.426
	c0,0.173-0.002,0.326-0.006,0.46c-0.005,0.133-0.02,0.273-0.045,0.422l0.818-0.038v0.533h-2.652v-0.387
	c0.198,0,0.35-0.04,0.453-0.118s0.179-0.187,0.226-0.327c0.047-0.139,0.073-0.307,0.079-0.501c0.007-0.194,0.01-0.408,0.01-0.642
	v-1.814c0-0.75-0.118-1.31-0.355-1.68s-0.613-0.555-1.13-0.555c-0.148,0-0.305,0.021-0.47,0.062c-0.165,0.043-0.32,0.1-0.467,0.172
	c-0.146,0.072-0.283,0.156-0.412,0.254s-0.242,0.203-0.34,0.317v3.841c0,0.173-0.004,0.326-0.013,0.46
	c-0.009,0.133-0.025,0.273-0.051,0.422l0.819-0.038v0.533h-2.654v-0.387c0.199,0,0.352-0.04,0.457-0.118
	c0.106-0.078,0.184-0.187,0.232-0.327c0.049-0.139,0.076-0.307,0.082-0.501c0.007-0.194,0.01-0.408,0.01-0.642V17.466z"/>
<path fill="#333333" d="M131.047,17.466c0-0.136,0.001-0.267,0.003-0.394s0.014-0.277,0.034-0.45l-0.92,0.051v-0.547
	c0.283,0,0.52-0.009,0.708-0.028c0.188-0.019,0.342-0.045,0.46-0.079s0.212-0.071,0.279-0.111s0.127-0.083,0.178-0.13h0.375v3.878
	c0.24-0.24,0.527-0.43,0.859-0.567s0.704-0.206,1.114-0.206c0.415,0,0.801,0.077,1.158,0.231s0.669,0.374,0.934,0.66
	c0.265,0.285,0.472,0.633,0.622,1.041s0.225,0.866,0.225,1.374c0,0.555-0.094,1.054-0.282,1.498s-0.438,0.823-0.749,1.137
	c-0.311,0.312-0.671,0.554-1.079,0.723c-0.408,0.17-0.83,0.254-1.267,0.254c-0.147,0-0.305-0.011-0.469-0.034
	c-0.166-0.023-0.333-0.065-0.502-0.127s-0.334-0.144-0.495-0.245s-0.309-0.23-0.444-0.387l-0.311,0.584h-0.457L131.047,17.466z
	 M133.738,19.523c-0.288,0-0.572,0.066-0.852,0.2c-0.279,0.133-0.52,0.312-0.723,0.536v3.288c0,0.347,0.042,0.632,0.127,0.854
	c0.084,0.223,0.198,0.398,0.342,0.527c0.145,0.129,0.309,0.218,0.492,0.267c0.185,0.049,0.376,0.072,0.574,0.072
	c0.313,0,0.596-0.066,0.848-0.199c0.252-0.134,0.466-0.322,0.642-0.565s0.311-0.534,0.406-0.872
	c0.095-0.339,0.143-0.714,0.143-1.124c0-0.436-0.041-0.837-0.124-1.203c-0.082-0.366-0.206-0.68-0.371-0.942
	s-0.372-0.468-0.622-0.615C134.37,19.597,134.076,19.523,133.738,19.523z"/>
<path fill="#333333" d="M139.209,28.435c0.047,0.021,0.096,0.031,0.146,0.031c0.076,0,0.174-0.032,0.295-0.098
	c0.12-0.065,0.242-0.204,0.365-0.416c0.109-0.19,0.242-0.475,0.396-0.854s0.326-0.833,0.518-1.361
	c-1.469-3.145-2.243-4.812-2.324-5.002c-0.08-0.191-0.146-0.358-0.199-0.502s-0.096-0.269-0.127-0.375
	c-0.032-0.105-0.055-0.194-0.066-0.266l-0.629,0.031v-0.533h2.691v0.387l-0.057,0.007c-0.183,0.013-0.321,0.053-0.416,0.12
	c-0.096,0.068-0.153,0.164-0.175,0.289s-0.009,0.288,0.038,0.489s0.641,1.499,1.783,3.894c0.902-2.627,1.381-4.009,1.438-4.145
	c0.057-0.136,0.112-0.254,0.165-0.355s0.103-0.169,0.148-0.203l-0.895,0.051v-0.533h2.037v0.387
	c-0.16,0.064-0.299,0.146-0.415,0.245s-0.22,0.22-0.308,0.361c-0.09,0.142-0.172,0.304-0.248,0.485
	c-0.076,0.183-0.696,1.895-1.859,5.136c-0.199,0.546-0.381,1.031-0.547,1.457c-0.164,0.425-0.337,0.781-0.517,1.069
	s-0.377,0.507-0.591,0.657s-0.464,0.226-0.752,0.226c-0.136,0-0.263-0.017-0.381-0.048c-0.118-0.032-0.223-0.081-0.311-0.146
	c-0.09-0.065-0.159-0.147-0.21-0.247s-0.076-0.215-0.076-0.346c0-0.081,0.013-0.159,0.038-0.235s0.062-0.144,0.111-0.203
	s0.107-0.106,0.178-0.143c0.069-0.036,0.146-0.054,0.231-0.054c0.102,0,0.188,0.019,0.257,0.057c0.07,0.038,0.126,0.087,0.168,0.146
	c0.043,0.059,0.072,0.121,0.09,0.187c0.017,0.065,0.025,0.124,0.025,0.175c0,0.025-0.002,0.054-0.004,0.086
	C139.223,28.375,139.218,28.406,139.209,28.435z"/>
<path fill="#EA8C8C" d="M152.253,15.018c-1.53,0.188-2.788,1.326-2.788,3.468c0,1.36,0.681,2.227,0.901,2.227
	c0.085,0,0.102-0.118,0.187-0.118s0.119,0.136,0.119,0.255c0,0.577-0.408,1.121-0.833,1.121c-0.102,0-0.204-0.033-0.289-0.102
	c-0.425-0.271-1.428-1.394-1.428-3.383c0-3.604,2.771-4.793,4.776-4.793c0.357,0,0.681,0.306,0.681,0.714v11.27v0.51
	c0.322-0.051,0.629-0.067,0.9-0.085c0.799-0.051,0.374,1.326-0.221,1.343c-0.255,0-0.476,0.018-0.697,0.034
	c-0.102,1.955-0.526,4.131-2.498,4.131c-1.156,0-1.904-0.867-1.904-2.006c0-1.717,1.53-2.652,3.094-3.11v-0.188V15.018z
	 M152.219,27.751c-1.122,0.34-1.733,0.969-1.733,1.818c0,0.51,0.271,0.731,0.611,0.731C151.862,30.3,152.134,29.093,152.219,27.751z
	"/>
<path fill="#EA8C8C" d="M162.418,23.28c-0.204,0.918-0.9,1.683-2.057,1.683c-0.306,0-0.578-0.034-0.833-0.119
	c-0.425,0.731-1.071,1.224-2.04,1.224c-1.717,0-2.481-1.462-2.481-3.161c0-2.499,1.359-4.012,1.733-4.012
	c0.442,0,0.782,0.9,0.34,1.189c-0.271,0.408-0.781,1.037-0.781,2.72c0,1.429,0.561,2.143,1.224,2.143
	c0.476,0,0.782-0.256,1.003-0.646c-0.799-0.68-1.224-1.802-1.224-3.025c0-1.071,0.459-1.989,1.377-1.989
	c0.799,0,1.444,1.207,1.444,2.856c0,0.629-0.067,1.258-0.237,1.835c0.118,0.034,0.221,0.034,0.34,0.034
	c0.73,0,1.121-0.561,1.224-1.224C161.518,22.396,162.639,22.328,162.418,23.28z M158.849,23.195
	c0.034-0.272,0.051-0.527,0.051-0.782c0-1.156-0.051-2.006-0.408-2.006c-0.187,0-0.289,0.272-0.289,0.799
	C158.202,21.97,158.457,22.685,158.849,23.195z"/>
<path fill="#EA8C8C" d="M161.449,19.931c0-0.323-0.067-0.425-0.067-0.544c0-0.17,0.203-0.289,0.441-0.289
	c0.562,0,0.918,0.34,0.918,0.748v0.765c0.459-0.952,1.071-1.683,1.904-1.683c1.139,0,1.41,0.935,1.41,1.717v3.519
	c0,0.153,0,0.782,0.442,0.782c0.68,0,0.985-1.088,1.139-1.836c0.068-0.357,0.238-0.511,0.408-0.511c0.271,0,0.595,0.374,0.595,0.697
	c0,0.018,0,0.051-0.017,0.119c-0.289,1.122-0.969,2.651-2.431,2.651c-0.901,0-1.429-0.73-1.429-1.598v-3.45
	c0-0.527-0.033-0.969-0.356-0.969c-0.493,0-1.547,1.461-1.666,2.805v2.481c0,0.323,0.017,0.73-0.476,0.73
	c-0.34,0-0.816-0.118-0.816-0.747V19.931z"/>
<path fill="#EA8C8C" d="M167.467,16.379c0-0.595,0.459-1.037,1.021-1.037c0.595,0,1.037,0.442,1.037,1.037
	c0,0.561-0.442,1.037-1.037,1.037C167.926,17.416,167.467,16.939,167.467,16.379z M168.878,24.164c0,0.153,0,0.782,0.442,0.782
	c0.68,0,0.985-1.088,1.139-1.836c0.204-1.037,1.122-0.238,0.985,0.306c-0.306,1.122-0.969,2.651-2.431,2.651
	c-0.9,0-1.428-0.73-1.428-1.598v-4.538c0-0.323-0.067-0.425-0.067-0.544c0-0.17,0.203-0.289,0.441-0.289
	c0.562,0,0.918,0.34,0.918,0.748V24.164z"/>
<path fill="#EA8C8C" d="M177.071,16.684c0-0.323-0.067-0.425-0.067-0.544c0-0.17,0.203-0.289,0.441-0.289
	c0.562,0,0.952,0.34,0.952,0.748v6.307c0,1.632,0.544,2.277,1.547,2.277c0.952,0,1.666-0.748,1.666-1.733
	c0-1.53-1.173-1.989-2.244-1.989c-0.306,0-0.595-1.274-0.085-1.274c0.799,0,2.754-0.527,2.754-2.992
	c0-1.292-0.833-2.617-2.924-2.617c-2.736,0-3.842,1.802-3.842,3.875c0,1.496,0.612,2.023,0.646,2.074
	c0.187-0.051,0.255,0.068,0.255,0.238c0,0.306-0.459,1.428-0.952,1.054c-0.272-0.255-1.241-1.275-1.241-3.264
	c0-3.179,2.091-5.253,5.117-5.253c2.566,0,4.249,1.445,4.249,3.858c0,1.854-0.952,2.992-2.192,3.655
	c0.985,0.289,1.784,1.139,1.784,2.601c0,1.7-1.291,2.94-2.975,2.94c-2.227,0-2.89-1.41-2.89-3.501V16.684z"/>
<path fill="#EA8C8C" d="M191.334,23.28c-0.204,0.918-0.9,1.683-2.057,1.683c-0.306,0-0.578-0.034-0.833-0.119
	c-0.425,0.731-1.071,1.224-2.04,1.224c-1.717,0-2.481-1.462-2.481-3.161c0-2.499,1.359-4.012,1.733-4.012
	c0.442,0,0.782,0.9,0.34,1.189c-0.271,0.408-0.781,1.037-0.781,2.72c0,1.429,0.561,2.143,1.224,2.143
	c0.476,0,0.782-0.256,1.003-0.646c-0.799-0.68-1.224-1.802-1.224-3.025c0-1.071,0.459-1.989,1.377-1.989
	c0.799,0,1.444,1.207,1.444,2.856c0,0.629-0.067,1.258-0.237,1.835c0.118,0.034,0.221,0.034,0.34,0.034
	c0.73,0,1.121-0.561,1.224-1.224C190.434,22.396,191.555,22.328,191.334,23.28z M187.765,23.195
	c0.034-0.272,0.051-0.527,0.051-0.782c0-1.156-0.051-2.006-0.408-2.006c-0.187,0-0.289,0.272-0.289,0.799
	C187.118,21.97,187.373,22.685,187.765,23.195z"/>
<path fill="#EA8C8C" d="M195.057,23.432c-0.306,0.918-1.139,2.635-2.686,2.635c-1.309,0-2.006-0.9-2.006-2.243v-7.734
	c0-1.275,0.697-2.176,1.547-2.176c1.496,0,1.513,1.785,1.513,2.736c0,2.499-1.547,5.933-1.768,6.137v0.986
	c0,0.68,0.272,1.173,0.901,1.173c0.781,0,1.359-1.071,1.513-1.819C194.275,22.124,195.193,22.888,195.057,23.432z M191.657,20.56
	c0.357-0.714,0.714-2.958,0.714-3.893c0-1.122-0.187-1.632-0.459-1.632c-0.187,0-0.255,0.407-0.255,0.68V20.56z"/>
<path fill="#EA8C8C" d="M201.296,23.28c-0.204,0.918-0.9,1.683-2.057,1.683c-0.306,0-0.578-0.034-0.833-0.119
	c-0.425,0.731-1.071,1.224-2.04,1.224c-1.717,0-2.481-1.462-2.481-3.161c0-2.499,1.359-4.012,1.733-4.012
	c0.442,0,0.782,0.9,0.341,1.189c-0.272,0.408-0.782,1.037-0.782,2.72c0,1.429,0.561,2.143,1.224,2.143
	c0.476,0,0.782-0.256,1.003-0.646c-0.799-0.68-1.224-1.802-1.224-3.025c0-1.071,0.459-1.989,1.377-1.989
	c0.799,0,1.444,1.207,1.444,2.856c0,0.629-0.067,1.258-0.237,1.835c0.118,0.034,0.221,0.034,0.34,0.034
	c0.73,0,1.121-0.561,1.224-1.224C200.396,22.396,201.517,22.328,201.296,23.28z M197.727,23.195
	c0.034-0.272,0.051-0.527,0.051-0.782c0-1.156-0.051-2.006-0.408-2.006c-0.187,0-0.289,0.272-0.289,0.799
	C197.08,21.97,197.335,22.685,197.727,23.195z"/>
<path fill="#EA8C8C" d="M203.455,27.07v-1.784c-0.34,0.34-0.799,0.611-1.394,0.611c-1.326,0-2.023-1.122-2.023-2.566
	c0-2.839,1.972-4.572,4.046-4.572c0.459,0,0.782,0.271,0.782,0.714c0,0.289-0.052,0.391-0.222,0.391
	c-0.152,0-0.322-0.034-0.492-0.034c-1.292,0-2.805,1.105-2.805,3.553c0,0.884,0.374,1.394,0.969,1.394c0.68,0,1.02-0.9,1.139-1.58
	v-1.921c0-0.323-0.068-0.425-0.068-0.544c0-0.17,0.204-0.289,0.442-0.289c0.561,0,0.918,0.34,0.918,0.748v4.623
	c0.611-0.68,1.155-1.529,1.496-2.702c0.102-0.357,0.237-0.511,0.407-0.511c0.272,0,0.596,0.374,0.596,0.697
	c0,0.018,0,0.103-0.018,0.17c-0.578,1.972-1.563,2.975-2.481,3.773v2.941c0,1.784-0.901,2.413-1.768,2.413
	c-0.952,0-1.632-0.866-1.632-1.954C201.348,28.923,202.333,28.056,203.455,27.07z M203.455,30.181v-1.819
	c-0.544,0.562-0.918,1.207-0.918,2.227c0,0.527,0.17,0.936,0.442,0.936C203.523,31.524,203.455,30.504,203.455,30.181z"/>
<path fill="#EA8C8C" d="M206.311,19.931c0-0.323-0.067-0.425-0.067-0.544c0-0.17,0.203-0.289,0.441-0.289
	c0.562,0,0.918,0.34,0.918,0.748v0.765c0.459-0.952,1.071-1.683,1.904-1.683c1.139,0,1.41,0.935,1.41,1.717v3.519
	c0,0.153,0,0.782,0.442,0.782c0.68,0,0.985-1.088,1.139-1.836c0.068-0.357,0.238-0.511,0.408-0.511c0.271,0,0.595,0.374,0.595,0.697
	c0,0.018,0,0.051-0.017,0.119c-0.289,1.122-0.969,2.651-2.431,2.651c-0.901,0-1.429-0.73-1.429-1.598v-3.45
	c0-0.527-0.033-0.969-0.356-0.969c-0.493,0-1.547,1.461-1.666,2.805v2.481c0,0.323,0.017,0.73-0.476,0.73
	c-0.34,0-0.816-0.118-0.816-0.747V19.931z"/>
<path fill="#EA8C8C" d="M218.396,23.11c0.068-0.357,0.238-0.511,0.408-0.511c0.272,0,0.595,0.374,0.595,0.697
	c0,0.018,0,0.051-0.017,0.119c-0.289,1.122-0.969,2.651-2.431,2.651c-0.595,0-1.054-0.289-1.309-0.696
	c-0.341,0.391-0.816,0.696-1.462,0.696c-1.326,0-2.023-1.121-2.023-2.566c0-2.839,1.972-4.572,4.046-4.572
	c0.459,0,0.782,0.271,0.782,0.714c0,0.289-0.052,0.391-0.222,0.391c-0.152,0-0.322-0.034-0.492-0.034
	c-1.292,0-2.805,1.105-2.805,3.553c0,0.884,0.374,1.395,0.969,1.395c0.459,0,0.765-0.408,0.952-0.885v-2.617
	c0-0.323-0.068-0.425-0.068-0.544c0-0.17,0.204-0.289,0.441-0.289c0.562,0,0.918,0.34,0.918,0.748v2.805
	c0,0.374,0.17,0.782,0.578,0.782C217.938,24.946,218.244,23.858,218.396,23.11z"/>
<path fill="#EB6D46" d="M116.047,14.264c0-4.958-4.131-8.977-9.227-8.977c-3.599,0-6.708,2.008-8.229,4.933
	c-1.522-2.924-4.631-4.933-8.23-4.933c-5.096,0-9.227,4.02-9.227,8.977c0,0.029,0.004,0.056,0.005,0.085
	c-0.046,0.977-0.012,10.442,17.451,20.359l0.001,0.006c0.001-0.001,0.003-0.002,0.005-0.003c0.001,0.001,0.003,0.002,0.005,0.003
	l0.002-0.006C117.043,24.235,116.047,14.264,116.047,14.264z"/>
</svg>
