<?xml version="1.0" encoding="utf-8"?>
<!-- Generator: Adobe Illustrator 17.0.2, SVG Export Plug-In . SVG Version: 6.00 Build 0)  -->
<!DOCTYPE svg PUBLIC "-//W3C//DTD SVG 1.1//EN" "http://www.w3.org/Graphics/SVG/1.1/DTD/svg11.dtd">
<svg version="1.1" id="Layer_1" xmlns="http://www.w3.org/2000/svg" xmlns:xlink="http://www.w3.org/1999/xlink" x="0px" y="0px"
	 width="100px" height="500px" viewBox="0 0 100 500" enable-background="new 0 0 100 500" xml:space="preserve">
<g opacity="0.6">
	
		<path fill="none" stroke="#7AA20D" stroke-width="2.3993" stroke-linecap="round" stroke-linejoin="round" stroke-miterlimit="10" d="
		M25.911,71.374c0,0,30.199-14.805,34.411-23.547s5.443,31.655-3.025,38.997"/>
	<path fill="#ED6E46" stroke="#ED6E46" stroke-width="3.8389" stroke-miterlimit="10" d="M56.75,88.572
		c0.537,0.127,1.127,0.19,1.801,0.18c2.81-0.04,7.003-0.129,8.16,3.561c2.494,7.952-3.458,17.295-11.69,18.247
		c-9.411,1.088-16.112-10.556-12.735-18.733c1.659-4.015,5.785-10.026,10.39-5.816C54.067,87.282,55.181,88.201,56.75,88.572z"/>
	<path fill="#ED6E46" stroke="#ED6E46" stroke-width="3.8389" stroke-miterlimit="10" d="M25.612,73.586
		c0.496,0.243,1.057,0.435,1.716,0.575c2.749,0.585,6.857,1.429,7.166,5.284c0.667,8.307-7.211,16.096-15.449,15.196
		c-9.418-1.028-13.367-13.87-8.258-21.092c2.509-3.547,7.867-8.491,11.422-3.364C23.283,71.733,24.165,72.876,25.612,73.586z"/>
	
		<path fill="#7AA20D" stroke="#7AA20D" stroke-width="1.2492" stroke-linecap="round" stroke-linejoin="round" stroke-miterlimit="10" d="
		M59.811,46.722c0.161-1.948,1.321-3.839,3.555-5.368c4.662-3.191,8.701-3.072,13.893-1.566c0.002,0.001,6.67,1.934,9.872-3.529
		c-1.99,3.396-3.917,6.731-6.278,9.904c-3.836,5.157-11.223,12.477-17.817,6.985C60.74,51.236,59.627,48.943,59.811,46.722z"/>
</g>
<g opacity="0.5">
	
		<path fill="none" stroke="#7AA20D" stroke-width="1.6172" stroke-linecap="round" stroke-linejoin="round" stroke-miterlimit="10" d="
		M15.384,176.678c0,0,9.386-20.635,7.836-26.99c-1.549-6.355,16.384,14.151,15.118,21.599"/>
	<path fill="#ED6E46" stroke="#ED6E46" stroke-width="2.5875" stroke-miterlimit="10" d="M38.802,172.43
		c0.334-0.164,0.668-0.384,1.015-0.677c1.446-1.224,3.591-3.065,5.773-1.639c4.703,3.072,5.603,10.485,1.725,14.504
		c-4.434,4.595-12.908,1.401-14.649-4.302c-0.855-2.801-1.28-7.696,2.92-7.476C36.853,172.907,37.826,172.909,38.802,172.43z"/>
	<path fill="#ED6E46" stroke="#ED6E46" stroke-width="2.5875" stroke-miterlimit="10" d="M16.175,177.957
		c0.362-0.086,0.737-0.226,1.14-0.435c1.682-0.872,4.182-2.191,5.993-0.317c3.903,4.04,3.136,11.467-1.538,14.525
		c-5.344,3.496-12.897-1.499-13.329-7.447c-0.212-2.921,0.461-7.788,4.507-6.641C14.169,177.99,15.118,178.207,16.175,177.957z"/>
	
		<path fill="#7AA20D" stroke="#7AA20D" stroke-width="0.842" stroke-linecap="round" stroke-linejoin="round" stroke-miterlimit="10" d="
		M22.481,149.331c-0.75-1.083-0.956-2.564-0.447-4.317c1.061-3.657,3.215-5.324,6.563-6.763c0.001-0.001,4.301-1.848,3.629-6.063
		c0.417,2.62,0.842,5.181,0.971,7.844c0.21,4.327-0.502,11.3-6.286,11.264C24.896,151.284,23.335,150.566,22.481,149.331z"/>
</g>
<g opacity="0.7">
	
		<path fill="none" stroke="#7AA20D" stroke-width="1.7195" stroke-linecap="round" stroke-linejoin="round" stroke-miterlimit="10" d="
		M54.152,251.088c0,0,16.433-17.635,17.017-24.565c0.584-6.93,11.739,19.801,7.947,26.883"/>
	<path fill="#ED6E46" stroke="#ED6E46" stroke-width="2.7513" stroke-miterlimit="10" d="M79.197,254.716
		c0.392-0.052,0.803-0.161,1.252-0.34c1.871-0.745,4.655-1.877,6.374,0.297c3.704,4.686,2.108,12.463-3.16,15.206
		c-6.023,3.135-13.487-2.947-13.316-9.285c0.084-3.113,1.31-8.192,5.469-6.551C77.071,254.538,78.052,254.869,79.197,254.716z"/>
	<path fill="#ED6E46" stroke="#ED6E46" stroke-width="2.7513" stroke-miterlimit="10" d="M54.518,252.645
		c0.394,0.036,0.819,0.021,1.296-0.054c1.99-0.311,4.956-0.797,6.149,1.705c2.571,5.391-0.711,12.62-6.457,14.125
		c-6.569,1.72-12.496-5.868-10.923-12.01c0.773-3.016,3.095-7.697,6.787-5.173C52.484,252.001,53.367,252.54,54.518,252.645z"/>
	
		<path fill="#7AA20D" stroke="#7AA20D" stroke-width="0.8953" stroke-linecap="round" stroke-linejoin="round" stroke-miterlimit="10" d="
		M70.544,225.914c-0.39-1.345-0.097-2.908,1.007-4.503c2.305-3.329,5.04-4.282,8.901-4.601c0.002,0,4.96-0.411,5.707-4.887
		c-0.464,2.782-0.901,5.508-1.67,8.236c-1.25,4.433-4.323,11.223-10.142,9.233C72.32,228.699,70.988,227.448,70.544,225.914z"/>
</g>
<g opacity="0.3">
	
		<path fill="none" stroke="#7AA20D" stroke-width="1.6135" stroke-linecap="round" stroke-linejoin="round" stroke-miterlimit="10" d="
		M24.746,334.572c0,0,19.978-10.604,22.62-16.572s4.343,21.159-1.19,26.277"/>
	<path fill="#ED6E46" stroke="#ED6E46" stroke-width="2.5816" stroke-miterlimit="10" d="M45.846,345.464
		c0.364,0.074,0.762,0.103,1.214,0.082c1.888-0.088,4.704-0.238,5.562,2.217c1.849,5.291-1.95,11.7-7.463,12.517
		c-6.302,0.935-11.058-6.747-8.965-12.316c1.028-2.735,3.672-6.864,6.858-4.134C44.015,344.655,44.784,345.249,45.846,345.464z"/>
	<path fill="#ED6E46" stroke="#ED6E46" stroke-width="2.5816" stroke-miterlimit="10" d="M24.593,336.065
		c0.338,0.153,0.72,0.27,1.166,0.35c1.86,0.334,4.64,0.812,4.931,3.397c0.628,5.569-4.499,10.975-10.055,10.548
		c-6.353-0.487-9.285-9.033-6.007-13.999c1.61-2.438,5.104-5.877,7.605-2.508C22.987,334.87,23.605,335.619,24.593,336.065z"/>
	
		<path fill="#7AA20D" stroke="#7AA20D" stroke-width="0.8401" stroke-linecap="round" stroke-linejoin="round" stroke-miterlimit="10" d="
		M46.998,317.269c0.066-1.313,0.805-2.609,2.274-3.685c3.064-2.246,5.782-2.253,9.304-1.353c0.001,0,4.525,1.156,6.559-2.585
		c-1.264,2.325-2.487,4.609-4.005,6.793c-2.467,3.549-7.274,8.629-11.825,5.081C47.72,320.282,46.923,318.765,46.998,317.269z"/>
</g>
<g opacity="0.22">
	
		<path fill="none" stroke="#7AA20D" stroke-width="1.2752" stroke-linecap="round" stroke-linejoin="round" stroke-miterlimit="10" d="
		M53.92,435.414c0,0,3.813-17.464,1.565-22.106c-2.248-4.642,14.977,8.191,15.237,14.143"/>
	<path fill="#ED6E46" stroke="#ED6E46" stroke-width="2.0403" stroke-miterlimit="10" d="M71.268,428.256
		c0.23-0.182,0.451-0.407,0.67-0.69c0.912-1.183,2.26-2.958,4.178-2.221c4.135,1.588,6.058,7.153,3.735,10.895
		c-2.656,4.278-9.718,3.221-12.006-0.887c-1.124-2.017-2.263-5.721,1.011-6.247C69.845,428.947,70.595,428.787,71.268,428.256z"/>
	<path fill="#ED6E46" stroke="#ED6E46" stroke-width="2.0403" stroke-miterlimit="10" d="M54.742,436.269
		c0.265-0.126,0.53-0.296,0.806-0.524c1.152-0.951,2.86-2.383,4.567-1.238c3.679,2.467,4.319,8.32,1.223,11.452
		c-3.54,3.582-10.19,0.983-11.51-3.53c-0.648-2.216-0.936-6.08,2.373-5.867C53.201,436.627,53.969,436.637,54.742,436.269z"/>
	
		<path fill="#7AA20D" stroke="#7AA20D" stroke-width="0.664" stroke-linecap="round" stroke-linejoin="round" stroke-miterlimit="10" d="
		M54.855,413.156c-0.758-0.711-1.162-1.818-1.061-3.254c0.212-2.995,1.596-4.638,3.938-6.302c0.001-0.001,3.009-2.138,1.792-5.276
		c0.756,1.95,1.508,3.854,2.05,5.886c0.88,3.301,1.487,8.794-2.978,9.726C57.042,414.261,55.719,413.966,54.855,413.156z"/>
</g>
</svg>
